<?xml version="1.0" encoding="UTF-8" standalone="no"?>
<svg xmlns="http://www.w3.org/2000/svg" xmlns:xlink="http://www.w3.org/1999/xlink" width="200" height="200" viewBox="0 0 200 200">
  <!-- White glowing sunburst -->
  <defs>
    <radialGradient id="sunburst" cx="50%" cy="50%" r="50%" fx="50%" fy="50%">
      <stop offset="0%" stop-color="white" stop-opacity="1" />
      <stop offset="70%" stop-color="white" stop-opacity="0.7" />
      <stop offset="100%" stop-color="white" stop-opacity="0" />
    </radialGradient>
    <filter id="glow" x="-50%" y="-50%" width="200%" height="200%">
      <feGaussianBlur stdDeviation="4" result="blur" />
      <feComposite in="SourceGraphic" in2="blur" operator="over" />
    </filter>
  </defs>
  
  <!-- Outer glow -->
  <circle cx="100" cy="100" r="65" fill="url(#sunburst)" filter="url(#glow)" />
  
  <!-- Pink outer eye shape -->
  <ellipse cx="100" cy="100" rx="60" ry="35" fill="none" stroke="#ff69b4" stroke-width="4" />
  
  <!-- Eye interior -->
  <ellipse cx="100" cy="100" rx="55" ry="30" fill="#120138" />
  
  <!-- Iris -->
  <circle cx="100" cy="100" r="25" fill="url(#iris-gradient)" />
  <defs>
    <radialGradient id="iris-gradient" cx="50%" cy="50%" r="50%" fx="50%" fy="50%">
      <stop offset="0%" stop-color="#9933ff" />
      <stop offset="80%" stop-color="#660099" />
      <stop offset="100%" stop-color="#330066" />
    </radialGradient>
  </defs>
  
  <!-- Pupil -->
  <circle cx="100" cy="100" r="10" fill="black" />
  
  <!-- Highlight -->
  <circle cx="90" cy="90" r="5" fill="white" opacity="0.7" />
  <circle cx="110" cy="95" r="3" fill="white" opacity="0.5" />
  
  <!-- Rays (sunburst effect) -->
  <g stroke="white" stroke-width="2" opacity="0.8">
    <!-- 8 directional rays -->
    <line x1="100" y1="30" x2="100" y2="10" />
    <line x1="135" y1="40" x2="150" y2="25" />
    <line x1="160" y1="100" x2="180" y2="100" />
    <line x1="135" y1="160" x2="150" y2="175" />
    <line x1="100" y1="170" x2="100" y2="190" />
    <line x1="65" y1="160" x2="50" y2="175" />
    <line x1="40" y1="100" x2="20" y2="100" />
    <line x1="65" y1="40" x2="50" y2="25" />
  </g>
</svg>